{
  "accessors": [
    {
      "bufferView": 1,
      "componentType": 5126,
      "count": 29632,
      "max": [
        0.053100001066923141,
        0.10055000334978104,
        0.0010199999669566751
      ],
      "min": [
        -0.050069998949766159,
        -0.16359999775886536,
        0
      ],
      "type": "VEC3"
    },
    {
      "bufferView": 1,
      "byteOffset": 355584,
      "componentType": 5126,
      "count": 29632,
      "max": [
        1,
        1,
        1
      ],
      "min": [
        -1,
        -1,
        -1
      ],
      "type": "VEC3"
    },
    {
      "bufferView": 0,
      "componentType": 5125,
      "count": 87006,
      "max": [
        29631
      ],
      "min": [
        0
      ],
      "type": "SCALAR"
    }
  ],
  "asset": {
    "generator": "Sketchfab (OSG glTF plugin)",
    "version": "2.0"
  },
  "bufferViews": [
    {
      "buffer": 0,
      "byteLength": 348024,
      "byteOffset": 0,
      "name": "ScalarBufferView",
      "target": 34963
    },
    {
      "buffer": 0,
      "byteLength": 711168,
      "byteOffset": 348024,
      "byteStride": 12,
      "name": "Vec4BufferView",
      "target": 34962
    }
  ],
  "buffers": [
    {
      "byteLength": 1059192,
      "uri": "scene.bin"
    }
  ],
  "materials": [
    {
      "doubleSided": true,
      "emissiveFactor": [
        0,
        0,
        0
      ],
      "name": "SVGMat",
      "pbrMetallicRoughness": {
        "baseColorFactor": [
          0,
          0,
          0,
          1
        ],
        "metallicFactor": 0,
        "roughnessFactor": 0.59999999999999998
      }
    }
  ],
  "meshes": [
    {
      "name": "GeodeMesh",
      "primitives": [
        {
          "attributes": {
            "NORMAL": 1,
            "POSITION": 0
          },
          "indices": 2,
          "material": 0,
          "mode": 4
        }
      ]
    }
  ],
  "nodes": [
    {
      "children": [
        1
      ],
      "name": "RootNode (gltf orientation matrix)",
      "rotation": [
        -0.70710678118654746,
        -0,
        -0,
        0.70710678118654757
      ]
    },
    {
      "children": [
        2
      ],
      "name": "RootNode (model correction matrix)"
    },
    {
      "children": [
        3
      ],
      "name": "Root"
    },
    {
      "children": [
        4
      ],
      "matrix": [
        56.048360000000002,
        0,
        0,
        0,
        0,
        56.048360000000002,
        0,
        0,
        0,
        0,
        56.048360000000002,
        0,
        3.1402600000000001,
        2.0071600000000003,
        0.0040500000000000006,
        1
      ],
      "name": "Curve.025"
    },
    {
      "mesh": 0,
      "name": "GeodeMesh"
    }
  ],
  "scene": 0,
  "scenes": [
    {
      "name": "OSG_Scene",
      "nodes": [
        0
      ]
    }
  ]
}

